<?xml version="1.0" encoding="UTF-8" standalone="no"?>
<svg
   width="1024"
   height="1024"
   version="1.1"
   id="svg119"
   sodipodi:docname="icon.svg"
   inkscape:export-filename="icon.svg"
   inkscape:export-xdpi="191.99977"
   inkscape:export-ydpi="191.99977"
   inkscape:version="1.3.2 (091e20e, 2023-11-25, custom)"
   xmlns:inkscape="http://www.inkscape.org/namespaces/inkscape"
   xmlns:sodipodi="http://sodipodi.sourceforge.net/DTD/sodipodi-0.dtd"
   xmlns="http://www.w3.org/2000/svg"
   xmlns:svg="http://www.w3.org/2000/svg">
  <defs
     id="defs119" />
  <sodipodi:namedview
     id="namedview119"
     pagecolor="#505050"
     bordercolor="#ffffff"
     borderopacity="1"
     inkscape:showpageshadow="0"
     inkscape:pageopacity="0"
     inkscape:pagecheckerboard="1"
     inkscape:deskcolor="#505050"
     inkscape:zoom="0.4008789"
     inkscape:cx="984.08771"
     inkscape:cy="532.57979"
     inkscape:window-width="1920"
     inkscape:window-height="1017"
     inkscape:window-x="-8"
     inkscape:window-y="-8"
     inkscape:window-maximized="1"
     inkscape:current-layer="svg119" />
  <g
     stroke-width="2"
     fill="none"
     id="g84"
     transform="matrix(1.9999977,0,0,1.9999731,0.00125038,0.00687707)">
    <path
       stroke="#8f4a29"
       vector-effect="non-scaling-stroke"
       d="m 447.82,0 0.11,31.99"
       id="path1" />
    <path
       stroke="#ca915d"
       vector-effect="non-scaling-stroke"
       d="M 447.93,31.99 416.04,32"
       id="path2" />
    <path
       stroke="#cba07a"
       vector-effect="non-scaling-stroke"
       d="M 416.04,32 H 32"
       id="path3" />
    <path
       stroke="#672f16"
       vector-effect="non-scaling-stroke"
       d="M 448.25,351.98 416,351.9"
       id="path4" />
    <path
       stroke="#b89372"
       vector-effect="non-scaling-stroke"
       d="m 416,351.9 q -0.01,0.03 -0.01,0.07"
       id="path5" />
    <path
       stroke="#b88555"
       vector-effect="non-scaling-stroke"
       d="m 415.99,351.97 -0.02,-63.25 q 0,-0.72 0.72,-0.72 h 30.8 a 0.44,0.44 0 0 0 0.44,-0.43 l 0.04,-31.56"
       id="path6" />
    <path
       stroke="#a85c31"
       vector-effect="non-scaling-stroke"
       d="M 447.97,256.01 447.99,192"
       id="path7" />
    <path
       stroke="#b88555"
       vector-effect="non-scaling-stroke"
       d="m 447.99,192 31.5,-0.01 a 0.44,0.44 0 0 0 0.44,-0.43 l 0.05,-31.57"
       id="path8" />
    <path
       stroke="#a85122"
       vector-effect="non-scaling-stroke"
       d="m 479.98,159.99 0.01,-64"
       id="path9" />
    <path
       stroke="#b88555"
       vector-effect="non-scaling-stroke"
       d="m 479.99,95.99 -0.02,-63.6 a 0.41,0.41 0 0 0 -0.41,-0.41 l -31.63,0.01"
       id="path10" />
    <path
       stroke="#cba07a"
       vector-effect="non-scaling-stroke"
       d="m 32,32 0.01,64.08"
       id="path11" />
    <path
       stroke="#ca915d"
       vector-effect="non-scaling-stroke"
       d="M 32.01,96.08 31.99,127.9"
       id="path12" />
    <path
       stroke="#793b1e"
       vector-effect="non-scaling-stroke"
       d="M 31.99,127.9 0,127.92"
       id="path13" />
    <path
       stroke="#f4dba6"
       vector-effect="non-scaling-stroke"
       d="m 416.04,32 -0.03,32.01"
       id="path14" />
    <path
       stroke="#a38567"
       vector-effect="non-scaling-stroke"
       d="M 416.01,64.01 352,64.2"
       id="path15" />
    <path
       stroke="#f4dba6"
       vector-effect="non-scaling-stroke"
       d="M 352,64.2 Q 351.16,64.33 350.75,64 207.52,63.99 64.51,64 A 0.51,0.51 0 0 0 64,64.51 v 30.98 a 0.5,0.5 0 0 1 -0.5,0.5 l -31.49,0.09"
       id="path16" />
    <path
       stroke="#e39856"
       vector-effect="non-scaling-stroke"
       d="M 479.99,95.99 448.44,95.98 A 0.44,0.44 0 0 1 448,95.54 V 64.52 a 0.5,0.5 0 0 0 -0.5,-0.5 l -31.53,-0.01"
       id="path17" />
    <path
       stroke="#a2764a"
       vector-effect="non-scaling-stroke"
       d="m 415.97,64.01 h 0.04 M 352,64.2 l 0.01,63.58"
       id="path18" />
    <path
       stroke="#e4a966"
       vector-effect="non-scaling-stroke"
       d="M 352.01,127.78 160.36,128 a 0.36,0.35 90 0 0 -0.35,0.36 l 0.21,31.63"
       id="path19" />
    <path
       stroke="#a2764a"
       vector-effect="non-scaling-stroke"
       d="M 160.22,159.99 32.88,159.97 a 0.9,0.89 -90 0 1 -0.89,-0.9 V 127.9"
       id="path20" />
    <path
       stroke="#924217"
       vector-effect="non-scaling-stroke"
       d="M 415.97,64.01 415.96,96"
       id="path21" />
    <path
       stroke="#935326"
       vector-effect="non-scaling-stroke"
       d="m 415.96,96 -31.51,0.01 A 0.45,0.44 0 0 0 384,96.45 v 31.05 a 0.5,0.5 0 0 1 -0.5,0.5 h -30.7 q -0.25,0 -0.45,-0.15 -0.18,-0.14 -0.34,-0.07"
       id="path22" />
    <path
       stroke="#e39856"
       vector-effect="non-scaling-stroke"
       d="m 479.98,159.99 -31.95,-0.01"
       id="path23" />
    <path
       stroke="#924217"
       vector-effect="non-scaling-stroke"
       d="M 448.03,159.98 447.99,96.57 A 0.57,0.57 0 0 0 447.42,96 L 416,95.99"
       id="path24" />
    <path
       stroke="#d47533"
       vector-effect="non-scaling-stroke"
       d="M 416,95.99 Q 415.98,96 415.96,96"
       id="path25" />
    <path
       stroke="#935326"
       vector-effect="non-scaling-stroke"
       d="m 416,95.99 v 63.96"
       id="path26" />
    <path
       stroke="#d48041"
       vector-effect="non-scaling-stroke"
       d="m 416,159.95 q -0.03,0.02 -0.06,0.05"
       id="path27" />
    <path
       stroke="#935326"
       vector-effect="non-scaling-stroke"
       d="M 415.94,160 160.22,159.99"
       id="path28" />
    <path
       stroke="#a2764a"
       vector-effect="non-scaling-stroke"
       d="m 448.03,159.98 q -0.02,0.01 -0.04,0.03"
       id="path29" />
    <path
       stroke="#934d25"
       vector-effect="non-scaling-stroke"
       d="M 447.99,160.01 416,159.95 m -0.06,0.05 0.01,31.57 a 0.45,0.44 0 0 1 -0.45,0.44 H 288.14"
       id="path30" />
    <path
       stroke="#995c32"
       vector-effect="non-scaling-stroke"
       d="m 288.14,192.01 -96.41,0.3"
       id="path31" />
    <path
       stroke="#394b08"
       vector-effect="non-scaling-stroke"
       d="m 191.73,192.31 q -0.18,-0.04 -0.34,-0.16 Q 191.2,192 190.96,192 l -29.42,-0.01 q -0.43,0 -0.78,0.25 -0.3,0.2 -0.75,0.21"
       id="path32" />
    <path
       stroke="#995c32"
       vector-effect="non-scaling-stroke"
       d="m 160.01,192.45 q 0.03,-0.38 -0.26,-0.38 Q 112.1,192 64.46,192 q -0.24,0 -0.39,0.1 -0.18,0.11 -0.29,0.28"
       id="path33" />
    <path
       stroke="#672f16"
       vector-effect="non-scaling-stroke"
       d="m 63.78,192.38 q -0.17,0.01 -0.35,-0.15 -0.23,-0.21 -0.55,-0.22 L 32,191.94"
       id="path34" />
    <path
       stroke="#e4a365"
       vector-effect="non-scaling-stroke"
       d="M 447.99,160.01 V 192 m -0.02,64.01 -63.97,0.24"
       id="path35" />
    <path
       stroke="#7c5c46"
       vector-effect="non-scaling-stroke"
       d="M 384,256.25 320,256 m 0,0 -0.02,-31.47 q 0,-0.49 -0.49,-0.49 l -31.02,-0.03"
       id="path36" />
    <path
       stroke="#784e3d"
       vector-effect="non-scaling-stroke"
       d="m 288.47,224.01 q -0.41,-0.09 -0.68,-0.02"
       id="path37" />
    <path
       stroke="#da894d"
       vector-effect="non-scaling-stroke"
       d="m 287.79,223.99 0.35,-31.98"
       id="path38" />
    <path
       stroke="#ae6a3d"
       vector-effect="non-scaling-stroke"
       d="m 63.78,192.38 0.19,31.63"
       id="path39" />
    <path
       stroke="#4f5914"
       vector-effect="non-scaling-stroke"
       d="M 63.97,224.01 V 256"
       id="path40" />
    <path
       stroke="#8f4a29"
       vector-effect="non-scaling-stroke"
       d="M 63.97,256 32,255.91"
       id="path41" />
    <path
       stroke="#818630"
       vector-effect="non-scaling-stroke"
       d="M 160.01,192.45 160,223.53 a 0.46,0.45 0 0 1 -0.46,0.45 l -31.26,0.03 a 0.27,0.27 0 0 0 -0.27,0.27 l 0.2,31.69"
       id="path42" />
    <path
       stroke="#eab271"
       vector-effect="non-scaling-stroke"
       d="m 128.21,255.97 q -0.05,0.19 -0.22,0.24"
       id="path43" />
    <path
       stroke="#a59e45"
       vector-effect="non-scaling-stroke"
       d="m 127.99,256.21 q -0.08,-0.04 -0.14,-0.1 -0.14,-0.14 -0.27,-0.14 -15.77,0.09 -31.54,-0.03"
       id="path44" />
    <path
       stroke="#818630"
       vector-effect="non-scaling-stroke"
       d="m 96.04,255.94 -0.03,-31.51 a 0.41,0.41 0 0 0 -0.41,-0.41 l -31.63,-0.01 m 127.76,-31.7 0.21,0.16 q 0.05,0.04 0.05,0.11 0.03,15.38 -0.02,30.5 0,0.91 -0.92,0.91 l -30.51,0.02 q -0.53,0 -0.52,0.53 l 0.24,31"
       id="path45" />
    <path
       stroke="#8aa148"
       vector-effect="non-scaling-stroke"
       d="m 160.26,255.54 q 0.07,0.36 -0.3,0.37 -12.33,0.2 -31.75,0.06"
       id="path46" />
    <path
       stroke="#7e5c49"
       vector-effect="non-scaling-stroke"
       d="m 287.79,223.99 h -63.25 a 0.53,0.52 0 0 0 -0.53,0.52 v 31.45"
       id="path47" />
    <path
       stroke="#eab271"
       vector-effect="non-scaling-stroke"
       d="m 224.01,255.96 -62.6,0.04 a 1.06,1.06 0 0 1 -0.66,-0.23 q -0.25,-0.19 -0.49,-0.23"
       id="path48" />
    <path
       stroke="#468d1c"
       vector-effect="non-scaling-stroke"
       d="m 96.04,255.94 q -0.03,0.03 -0.06,0.05"
       id="path49" />
    <path
       stroke="#8aa148"
       vector-effect="non-scaling-stroke"
       d="M 95.98,255.99 63.97,256"
       id="path50" />
    <path
       stroke="#202f42"
       vector-effect="non-scaling-stroke"
       d="m 288.47,224.01 q -0.47,1.34 -0.47,1.74 -0.06,15.05 0.09,30.23"
       id="path51" />
    <path
       stroke="#887761"
       vector-effect="non-scaling-stroke"
       d="m 288.09,255.98 -64.08,-0.02"
       id="path52" />
    <path
       stroke="#8b856a"
       vector-effect="non-scaling-stroke"
       d="m 320,256 -31.91,-0.02 M 320,256 l 0.05,31.29 a 0.71,0.71 0 0 0 0.71,0.71 l 62.42,-0.01 a 0.79,0.79 0 0 0 0.79,-0.79 L 384,256.25"
       id="path53" />
    <path
       stroke="#f4dba6"
       vector-effect="non-scaling-stroke"
       d="M 415.99,351.97 288,352.01"
       id="path54" />
    <path
       stroke="#8b856a"
       vector-effect="non-scaling-stroke"
       d="m 288,352.01 -63.93,-0.02"
       id="path55" />
    <path
       stroke="#f4dba6"
       vector-effect="non-scaling-stroke"
       d="m 224.07,351.99 -31.84,-0.28"
       id="path56" />
    <path
       stroke="#afb85d"
       vector-effect="non-scaling-stroke"
       d="m 192.23,351.71 -0.24,-31.19 a 0.52,0.52 0 0 0 -0.52,-0.51 l -31.41,-0.02"
       id="path57" />
    <path
       stroke="#f4dba6"
       vector-effect="non-scaling-stroke"
       d="M 160.06,319.99 64,319.98"
       id="path58" />
    <path
       stroke="#ca915d"
       vector-effect="non-scaling-stroke"
       d="M 64,319.98 63.97,256"
       id="path59" />
    <path
       stroke="#afb85d"
       vector-effect="non-scaling-stroke"
       d="m 95.98,255.99 -0.01,31.18 q 0,0.83 0.84,0.83 l 30.47,-0.02 a 0.68,0.68 0 0 0 0.68,-0.68 l 0.03,-31.09"
       id="path60" />
    <path
       stroke="#cba07a"
       vector-effect="non-scaling-stroke"
       d="m 64,319.98 -32,0.06"
       id="path61" />
    <path
       stroke="#afc77a"
       vector-effect="non-scaling-stroke"
       d="m 160.06,319.99 -0.07,31.8"
       id="path62" />
    <path
       stroke="#b3d48d"
       vector-effect="non-scaling-stroke"
       d="m 159.99,351.79 -31.57,0.22 a 0.4,0.4 0 0 0 -0.4,0.4 L 128,384 m 0,0 -31.69,0.01 a 0.3,0.29 -90 0 0 -0.29,0.3 L 96.01,416"
       id="path63" />
    <path
       stroke="#f4dba6"
       vector-effect="non-scaling-stroke"
       d="m 96.01,416 -64,0.04"
       id="path64" />
    <path
       stroke="#cba07a"
       vector-effect="non-scaling-stroke"
       d="M 32.01,416.04 32,320.04"
       id="path65" />
    <path
       stroke="#b3d48d"
       vector-effect="non-scaling-stroke"
       d="M 96,352.54 A 0.54,0.54 0 0 0 95.46,352 H 64.54 A 0.54,0.54 0 0 0 64,352.54 v 30.92 A 0.54,0.54 0 0 0 64.54,384 H 95.46 A 0.54,0.54 0 0 0 96,383.46 v -30.92"
       id="path66" />
    <path
       stroke="#ca915d"
       vector-effect="non-scaling-stroke"
       d="m 32.01,416.04 q -0.02,15.6 0,30.71 0,0.94 0.73,1.25"
       id="path67" />
    <path
       stroke="#8f4a29"
       vector-effect="non-scaling-stroke"
       d="m 32.74,448 q -0.36,-0.22 -0.72,-0.07"
       id="path68" />
    <path
       stroke="#afc77a"
       vector-effect="non-scaling-stroke"
       d="m 192.23,351.71 -32.17,0.28"
       id="path69" />
    <path
       stroke="#6eb244"
       vector-effect="non-scaling-stroke"
       d="m 160.06,351.99 q 0.39,0.11 -0.07,-0.2"
       id="path70" />
    <path
       stroke="#a38567"
       vector-effect="non-scaling-stroke"
       d="m 416,351.9 v 95.63"
       id="path71" />
    <path
       stroke="#f4dba6"
       vector-effect="non-scaling-stroke"
       d="m 416,447.53 q -0.16,0.33 -0.3,0.44 -0.08,0.06 -0.18,0.06 Q 319.87,447.96 224.75,448 A 0.74,0.74 0 0 1 224,447.26 l -0.02,-30.55 A 0.71,0.71 0 0 0 223.27,416 l -95.29,-0.01"
       id="path72" />
    <path
       stroke="#b3d48d"
       vector-effect="non-scaling-stroke"
       d="M 127.98,415.99 128,384 m 0,0 31.25,-0.03 a 0.79,0.79 0 0 0 0.79,-0.79 l 0.02,-31.19"
       id="path73" />
    <path
       stroke="#8c9387"
       vector-effect="non-scaling-stroke"
       d="m 224.07,351.99 0.02,31.4 a 0.61,0.61 0 0 0 0.6,0.61 l 62.78,0.01 q 0.57,0 0.57,-0.58 L 288,352.01"
       id="path74" />
    <path
       stroke="#93aa9b"
       vector-effect="non-scaling-stroke"
       d="m 320.05,415.98 31.23,-0.03 a 0.7,0.69 -90 0 0 0.69,-0.7 l 0.04,-30.73 a 0.49,0.49 0 0 0 -0.49,-0.49 l -31.44,-0.02"
       id="path75" />
    <path
       stroke="#8c9387"
       vector-effect="non-scaling-stroke"
       d="m 320.08,384.01 -31.64,0.01 a 0.44,0.44 0 0 0 -0.44,0.44 v 30.82 a 0.7,0.69 0 0 0 0.7,0.69 l 31.35,0.01"
       id="path76" />
    <path
       stroke="#2b545f"
       vector-effect="non-scaling-stroke"
       d="m 320.08,384.01 -0.03,31.97"
       id="path77" />
    <path
       stroke="#672f16"
       vector-effect="non-scaling-stroke"
       d="m 255.94,512 -0.11,-31.99"
       id="path78" />
    <path
       stroke="#a2764a"
       vector-effect="non-scaling-stroke"
       d="m 255.83,480.01 223.46,0.01 a 0.69,0.68 0 0 0 0.69,-0.68 l 0.01,-31.3"
       id="path79" />
    <path
       stroke="#924217"
       vector-effect="non-scaling-stroke"
       d="m 479.99,448.04 -0.02,-63.76 A 0.28,0.28 0 0 0 479.69,384 h -31.15 q -0.51,0 -0.51,0.51 l 0.01,63.48"
       id="path80" />
    <path
       stroke="#a2764a"
       vector-effect="non-scaling-stroke"
       d="m 448.04,447.99 q -15.38,0.04 -31.29,-0.02 -0.4,0 -0.75,-0.44"
       id="path81" />
    <path
       stroke="#b2c670"
       vector-effect="non-scaling-stroke"
       d="M 127.98,415.99 96.01,416"
       id="path82" />
    <path
       stroke="#e39856"
       vector-effect="non-scaling-stroke"
       d="m 479.99,448.04 -31.95,-0.05"
       id="path83" />
    <path
       stroke="#b88555"
       vector-effect="non-scaling-stroke"
       d="M 255.83,480.01 65.21,480.03 A 1.22,1.21 -90 0 1 64,478.81 v -30.26 q 0,-0.5 -0.51,-0.5 L 32.74,448"
       id="path84" />
  </g>
  <path
     fill="#a15631"
     d="M 66.241173,0.00687707 H 895.6402 l 0.22,63.97913893 -63.77993,0.02 H 64.001176 V 4.0068231 q 0,-3.51995249 2.239997,-3.99994603 z"
     id="path85"
     style="stroke-width:1.99999" />
  <path
     fill="#7c3d21"
     d="m 895.6402,0.00687707 h 64.03993 L 960.08012,62.92603 q 0,0.999987 1,0.999987 L 1024,64.166013 V 383.86172 l -63.01988,0.2 q -0.98,0 -0.98,0.97998 v 189.45744 a 1.4999982,1.4999799 0 0 1 -1.49999,1.49999 H 897.0402 q -1.02,0 -1,0.99999 l 0.46,126.95829 -64.49993,-0.16 q -0.02,0.06 -0.02,0.13999 l -0.04,-126.49829 q 0,-1.43998 1.43999,-1.43998 h 61.59993 a 0.87999897,0.87998815 0 0 0 0.88,-0.85999 l 0.08,-63.11916 0.04,-128.01827 62.99993,-0.02 a 0.87999897,0.87998815 0 0 0 0.88,-0.85998 l 0.1,-63.13916 0.02,-127.99827 -0.04,-127.198295 a 0.81999904,0.81998897 0 0 0 -0.82,-0.819989 l -63.25993,0.02 z"
     id="path86"
     style="stroke-width:1.99999" />
  <path
     fill="#a15631"
     d="m 64.001176,64.006015 0.02,128.158275 -0.04,63.63915 -63.97992562,0.04 V 64.466009 Z"
     id="path87"
     style="stroke-width:1.99999" />
  <path
     fill="#f4e9c3"
     d="M 64.001176,64.006015 H 832.08027 l -0.06,64.019145 -128.01985,0.37999 q -1.67999,0.26 -2.49999,-0.39999 -286.45967,-0.02 -572.47933,0 a 1.0199988,1.0199862 0 0 0 -1.02,1.01998 v 61.95918 a 0.99999883,0.99998652 0 0 1 -1,0.99998 l -62.979924,0.17999 z"
     id="path88"
     style="stroke-width:1.99999" />
  <path
     fill="#f3cc89"
     d="m 832.08027,64.006015 63.77993,-0.02 63.25993,-0.02 a 0.81999904,0.81998897 0 0 1 0.82,0.819989 l 0.04,127.198296 -63.09993,-0.02 a 0.87999897,0.87998815 0 0 1 -0.88,-0.87997 v -62.03918 a 0.99999883,0.99998652 0 0 0 -1,-0.99998 l -63.05992,-0.02 h 0.08 z m -128.07985,64.399135 0.02,127.15828 -383.29955,0.44001 a 0.69999918,0.71999031 0 0 0 -0.7,0.71999 l 0.42,63.25914 -254.679696,-0.04 a 1.7799979,1.7999759 0 0 1 -1.779998,-1.79997 v -62.33916 l 0.04,-63.63915 62.979924,-0.17999 a 0.99999883,0.99998652 0 0 0 1,-0.99998 v -61.95918 a 1.0199988,1.0199862 0 0 1 1.02,-1.01998 q 286.01966,-0.02 572.47933,0 0.82,0.65999 2.49999,0.39999 z"
     id="path89"
     style="stroke-width:1.99999" />
  <path
     fill="#51200a"
     d="m 832.02027,128.02516 h -0.08 l -0.02,63.97914 -63.01993,0.02 a 0.89999895,0.87998815 0 0 0 -0.9,0.88 v 62.09916 a 0.99999883,0.99998652 0 0 1 -1,0.99999 h -61.39993 q -0.5,0 -0.9,-0.3 -0.36,-0.27999 -0.68,-0.14001 l -0.02,-127.15828 z"
     id="path90"
     style="stroke-width:1.99999" />
  <path
     fill="#d36423"
     d="m 831.94028,128.02516 63.05992,0.02 a 0.99999883,0.99998652 0 0 1 1,0.99998 v 62.03918 a 0.87999897,0.87998815 0 0 0 0.88,0.87997 l 63.09993,0.02 -0.02,127.99827 -63.89993,-0.02 -0.08,-126.81829 a 1.1399987,1.1399846 0 0 0 -1.14,-1.13998 l -62.83993,-0.02 q -0.04,0.02 -0.08,0.02 z"
     id="path91"
     style="stroke-width:1.99999" />
  <path
     fill="#d48642"
     d="m 831.92028,192.0043 q 0.04,0 0.08,-0.02 v 127.91828 q -0.06,0.04 -0.11999,0.10001 l -511.43941,-0.02 -0.42,-63.25914 a 0.69999918,0.71999031 0 0 1 0.7,-0.71999 l 383.29955,-0.44001 q 0.32,-0.13998 0.68,0.14001 0.4,0.3 0.9,0.3 h 61.39993 a 0.99999883,0.99998652 0 0 0 1,-0.99999 v -62.09916 a 0.89999895,0.87998815 0 0 1 0.9,-0.88 z"
     id="path92"
     style="stroke-width:1.99999" />
  <path
     fill="#51200a"
     d="m 832.00027,191.9843 62.83993,0.02 a 1.1399987,1.1399846 0 0 1 1.14,1.13998 l 0.08,126.81829 q -0.04,0.02 -0.08,0.06 l -63.97993,-0.11999 z M 63.981176,255.80344 v 62.33916 a 1.7799979,1.7999759 0 0 0 1.779998,1.79997 l 254.679696,0.04 511.43941,0.02 0.02,63.13915 a 0.89999895,0.87998815 0 0 1 -0.9,0.87999 H 576.28057 l -192.81977,0.59998 q -0.36,-0.08 -0.68,-0.32 -0.38,-0.29999 -0.86,-0.29999 l -58.83993,-0.02 q -0.86,0 -1.56,0.5 -0.6,0.39999 -1.5,0.41998 0.06,-0.75998 -0.51999,-0.75998 -95.29989,-0.14 -190.57978,-0.14 -0.48,0 -0.78,0.19999 -0.36,0.22001 -0.58,0.56001 -0.34,0.02 -0.7,-0.3 -0.46,-0.41999 -1.1,-0.43999 l -61.759924,-0.14001 0.02,-63.23915 a 0.63999925,0.63999138 0 0 0 -0.639999,-0.63998 l -63.37992662,-0.16 v -63.99913 z"
     id="path93"
     style="stroke-width:1.99999" />
  <path
     fill="#d47a40"
     d="m 832.00027,319.90258 63.97993,0.11999 v 63.97914 l -0.04,128.01827 -127.93985,0.48 -127.99985,-0.5 -0.04,-62.93914 q 0,-0.97999 -0.98,-0.97999 l -62.03993,-0.06 q -0.82,-0.18001 -1.35999,-0.04 l 0.69999,-63.95913 h 254.71971 a 0.89999895,0.87998815 0 0 0 0.9,-0.87999 l -0.02,-63.13915 q 0.06,-0.06 0.11999,-0.10001 z"
     id="path94"
     style="stroke-width:1.99999" />
  <path
     fill="#f3cc89"
     d="m 895.9802,320.02257 q 0.04,-0.04 0.08,-0.06 l 63.89993,0.02 -0.1,63.13916 a 0.87999897,0.87998815 0 0 1 -0.88,0.85998 l -62.99993,0.02 z"
     id="path95"
     style="stroke-width:1.99999" />
  <path
     fill="#7c3d21"
     d="m 64.001176,383.88171 61.759924,0.14001 q 0.64,0.02 1.1,0.43999 0.36,0.32 0.7,0.3 l 0.38,63.25915 v 63.97912 l -63.939924,-0.17999 z"
     id="path96"
     style="stroke-width:1.99999" />
  <path
     fill="#e09759"
     d="m 320.02087,384.90169 -0.02,62.15917 a 0.91999892,0.8999879 0 0 1 -0.91999,0.89999 l -62.51993,0.06 a 0.53999937,0.53999274 0 0 0 -0.54,0.53998 l 0.4,63.37916 q -0.1,0.37998 -0.44,0.47998 -0.16,-0.08 -0.28,-0.2 -0.28,-0.27998 -0.54,-0.27998 -31.53996,0.17998 -63.07993,-0.06 l -0.06,-63.01915 a 0.81999904,0.81998897 0 0 0 -0.81999,-0.81999 l -63.25993,-0.02 -0.38,-63.25915 q 0.22,-0.34 0.58,-0.56001 0.3,-0.19999 0.78,-0.19999 95.27989,0 190.57978,0.14 0.57999,0 0.51999,0.75998 z"
     id="path97"
     style="stroke-width:1.99999" />
  <path
     fill="#217506"
     d="m 383.4608,384.6217 0.42,0.32 q 0.1,0.08 0.1,0.22 0.06,30.75958 -0.04,60.99918 0,1.81997 -1.84,1.81997 l -61.01993,0.04 q -1.06,0 -1.04,1.05998 l 0.48,61.99916 q 0.14,0.71999 -0.59999,0.73999 -24.65998,0.39999 -63.49993,0.12001 l -0.4,-63.37916 a 0.53999937,0.53999274 0 0 1 0.54,-0.53998 l 62.51993,-0.06 a 0.91999892,0.8999879 0 0 0 0.91999,-0.89999 l 0.02,-62.15917 q 0.9,-0.02 1.5,-0.41998 0.7,-0.5 1.56,-0.5 l 58.83993,0.02 q 0.48,0 0.86,0.29999 0.32,0.24001 0.68,0.32 z"
     id="path98"
     style="stroke-width:1.99999" />
  <path
     fill="#e09759"
     d="m 576.28057,384.02172 -0.69999,63.95913 H 449.08072 a 1.0599988,1.039986 0 0 0 -1.06,1.03999 v 62.89915 l -125.19985,0.08 a 2.1199975,2.1199715 0 0 1 -1.32,-0.45998 q -0.5,-0.38 -0.98,-0.46 l -0.48,-61.99916 q -0.02,-1.05998 1.04,-1.05998 l 61.01993,-0.04 q 1.84,0 1.84,-1.81997 0.1,-30.2396 0.04,-60.99918 0,-0.14001 -0.1,-0.22 l -0.42,-0.32 z"
     id="path99"
     style="stroke-width:1.99999" />
  <path
     fill="#217506"
     d="m 127.9411,448.02086 63.25993,0.02 a 0.81999904,0.81998897 0 0 1 0.81999,0.81999 l 0.06,63.01915 q -0.06,0.06 -0.11999,0.10001 L 127.9411,512 Z"
     id="path100"
     style="stroke-width:1.99999" />
  <path
     fill="#1c2139"
     d="m 575.58058,447.98085 q 0.53999,-0.14 1.35999,0.04 -0.94,2.67995 -0.94,3.47995 -0.11999,30.09958 0.18,60.45919 l -128.15985,-0.04 v -62.89915 a 1.0599988,1.039986 0 0 1 1.06,-1.03999 z"
     id="path101"
     style="stroke-width:1.99999" />
  <path
     fill="#233d4b"
     d="m 576.94057,448.02086 62.03993,0.06 q 0.98,0 0.98,0.97999 l 0.04,62.93914 -63.81993,-0.04 q -0.29999,-30.35961 -0.18,-60.45919 0,-0.8 0.94,-3.47995 z"
     id="path102"
     style="stroke-width:1.99999" />
  <path
     fill="#f3cc89"
     d="m 320.52087,511.08 q 0.48,0.08 0.98,0.46 a 2.1199975,2.1199715 0 0 0 1.32,0.45998 l 125.19985,-0.08 128.15985,0.04 63.81993,0.04 0.1,62.57917 a 1.4199983,1.4199809 0 0 0 1.42,1.41998 l 124.83985,-0.02 a 1.5799981,1.5799788 0 0 0 1.58,-1.57998 l 0.06,-61.89917 127.93985,-0.48 -0.08,63.11916 a 0.87999897,0.87998815 0 0 1 -0.88,0.85999 h -61.59993 q -1.43999,0 -1.43999,1.43998 l 0.04,126.49829 -255.97971,0.08 -127.85985,-0.04 -63.67992,-0.55999 -0.48,-62.37917 a 1.0399988,1.039986 0 0 0 -1.04,-1.01999 l -62.81993,-0.04 -192.11977,-0.02 -0.06,-127.95829 64.01993,-0.02 -0.02,62.35916 q 0,1.65998 1.67999,1.65998 l 60.93993,-0.04 a 1.3599984,1.3599817 0 0 0 1.36,-1.35999 l 0.06,-62.17916 q 0.34,-0.10001 0.44,-0.47998 38.83995,0.27998 63.49993,-0.12001 0.73999,-0.02 0.59999,-0.73999 z"
     id="path103"
     style="stroke-width:1.99999" />
  <path
     fill="#a15631"
     d="m 64.001176,511.81999 63.939924,0.17999 0.06,127.95829 -63.999924,0.12 z"
     id="path104"
     style="stroke-width:1.99999" />
  <path
     fill="#6aa431"
     d="m 192.08102,511.87999 q 31.53997,0.23999 63.07993,0.06 0.26,0 0.54,0.27998 0.12,0.12001 0.28,0.2 l -0.06,62.17916 a 1.3599984,1.3599817 0 0 1 -1.36,1.35999 l -60.93993,0.04 q -1.67999,0 -1.67999,-1.65998 l 0.02,-62.35916 q 0.06,-0.04 0.11999,-0.10001 z"
     id="path105"
     style="stroke-width:1.99999" />
  <path
     fill="#233d4b"
     d="m 640.0005,511.99998 127.99985,0.5 -0.06,61.89917 a 1.5799981,1.5799788 0 0 1 -1.58,1.57998 l -124.83985,0.02 a 1.4199983,1.4199809 0 0 1 -1.42,-1.41998 z"
     id="path106"
     style="stroke-width:1.99999" />
  <path
     fill="#f4e9c3"
     d="m 128.0011,639.95827 192.11977,0.02 -0.13999,63.59914 -63.13993,0.44 a 0.79999906,0.79998923 0 0 0 -0.8,0.79999 l -0.04,63.17914 -63.37993,0.02 a 0.57999932,0.59999192 0 0 0 -0.58,0.59999 l -0.02,63.37916 -127.999844,0.08 -0.02,-191.99742 z m 63.99992,65.11911 a 1.0799987,1.0799855 0 0 0 -1.07999,-1.07997 H 129.0811 a 1.0799987,1.0799855 0 0 0 -1.08,1.07997 v 61.83918 a 1.0799987,1.0799855 0 0 0 1.08,1.07998 h 61.83993 a 1.0799987,1.0799855 0 0 0 1.07999,-1.07998 z"
     id="path107"
     style="stroke-width:1.99999" />
  <path
     fill="#a15631"
     d="m 64.001176,640.07827 0.02,191.99742 q -0.04,31.19957 0,61.41917 0,1.87998 1.459998,2.49997 -0.719999,-0.44 -1.439998,-0.14001 L 0.00125038,895.57484 V 640.63825 Z"
     id="path108"
     style="stroke-width:1.99999" />
  <path
     fill="#6aa431"
     d="m 320.12087,639.97827 62.81993,0.04 a 1.0399988,1.039986 0 0 1 1.04,1.01999 l 0.48,62.37917 -64.33993,0.55999 q 0.78,0.22 -0.13999,-0.4 z"
     id="path109"
     style="stroke-width:1.99999" />
  <path
     fill="#f4e9c3"
     d="m 831.98028,703.9374 q 0,-0.08 0.02,-0.13999 v 191.25742 q -0.31999,0.65999 -0.59999,0.87999 -0.16,0.12 -0.36,0.12 -191.29978,-0.14 -381.53956,-0.06 a 1.4799983,1.4799801 0 0 1 -1.5,-1.47999 l -0.04,-61.09917 a 1.4199983,1.4199809 0 0 0 -1.42,-1.41998 l -190.57978,-0.02 0.04,-63.97915 62.49993,-0.06 a 1.5799981,1.5799788 0 0 0 1.57999,-1.57998 l 0.04,-62.37915 64.33993,-0.55999 63.67992,0.55999 0.04,62.79915 a 1.2199986,1.2199836 0 0 0 1.2,1.21998 l 125.55986,0.02 q 1.13999,0 1.13999,-1.15997 l -0.08,-62.83916 z m -191.87978,128.01828 62.45993,-0.06 a 1.3799984,1.3999811 0 0 0 1.38,-1.39998 l 0.08,-61.45918 a 0.97999885,0.97998681 0 0 0 -0.97999,-0.97999 l -62.87993,-0.04 -63.27993,0.02 a 0.87999897,0.87998815 0 0 0 -0.88,0.87999 v 61.63918 a 1.3999984,1.3799814 0 0 0 1.4,1.37998 z"
     id="path110"
     style="stroke-width:1.99999" />
  <path
     fill="#71bf56"
     d="m 319.98088,703.57741 q 0.91999,0.62 0.13999,0.4 l -0.04,62.37915 a 1.5799981,1.5799788 0 0 1 -1.57999,1.57998 l -62.49993,0.06 0.04,-63.17914 a 0.79999906,0.79998923 0 0 1 0.8,-0.79999 z"
     id="path111"
     style="stroke-width:1.99999" />
  <path
     fill="#51200a"
     d="m 832.00027,703.79741 64.49993,0.16 127.4998,0.14 v 255.79656 l -62.93988,0.15998 q -1,0 -1,1 l -0.27999,62.93915 H 511.88065 l -0.22,-63.97913 446.91948,0.02 a 1.3799984,1.3599817 0 0 0 1.38,-1.35998 l 0.02,-62.59916 -0.04,-127.51829 a 0.55999934,0.55999247 0 0 0 -0.56,-0.55999 H 897.0802 q -1.02,0 -1.02,1.02 l 0.02,126.95828 q -30.75996,0.08 -62.57993,-0.04 -0.8,0 -1.5,-0.87999 z"
     id="path112"
     style="stroke-width:1.99999" />
  <rect
     fill="#71bf56"
     x="128.0011"
     y="703.99738"
     width="63.999924"
     height="63.999138"
     rx="1.0799987"
     id="rect112"
     style="stroke-width:1.99999" />
  <path
     fill="#233d4b"
     d="m 448.14072,703.97741 127.85985,0.04 0.08,62.83916 q 0,1.15997 -1.13999,1.15997 l -125.55986,-0.02 a 1.2199986,1.2199836 0 0 1 -1.2,-1.21998 z"
     id="path113"
     style="stroke-width:1.99999" />
  <path
     fill="#71bf56"
     d="m 256.00095,767.99654 -0.04,63.97915 -63.93993,0.02 0.02,-63.37916 a 0.57999932,0.59999192 0 0 1 0.58,-0.59999 z"
     id="path114"
     style="stroke-width:1.99999" />
  <path
     fill="#233d4b"
     d="m 640.1605,768.01654 -0.06,63.93914 -62.69993,-0.02 a 1.3999984,1.3799814 0 0 1 -1.4,-1.37998 v -61.63918 a 0.87999897,0.87998815 0 0 1 0.88,-0.87999 z"
     id="path115"
     style="stroke-width:1.99999" />
  <path
     fill="#326a72"
     d="m 640.1605,768.01654 62.87993,0.04 a 0.97999885,0.97998681 0 0 1 0.97999,0.97999 l -0.08,61.45918 a 1.3799984,1.3999811 0 0 1 -1.38,1.39998 l -62.45993,0.06 z"
     id="path116"
     style="stroke-width:1.99999" />
  <path
     fill="#d36423"
     d="m 959.98013,896.07482 -63.89993,-0.10001 -0.02,-126.95828 q 0,-1.02 1.02,-1.02 h 62.29993 a 0.55999934,0.55999247 0 0 1 0.56,0.55999 z"
     id="path117"
     style="stroke-width:1.99999" />
  <path
     fill="#f3cc89"
     d="m 255.96095,831.97569 190.57978,0.02 a 1.4199983,1.4199809 0 0 1 1.42,1.41998 l 0.04,61.09917 a 1.4799983,1.4799801 0 0 0 1.5,1.47999 q 190.23978,-0.08 381.53956,0.06 0.2,0 0.36,-0.12 0.28,-0.22 0.59999,-0.87999 0.7,0.87999 1.5,0.87999 31.81997,0.12 62.57993,0.04 l 63.89993,0.10001 -0.02,62.59916 a 1.3799984,1.3599817 0 0 1 -1.38,1.35998 l -446.91948,-0.02 -381.23955,0.04 a 2.4199972,2.4399671 0 0 1 -2.42,-2.43996 v -60.51918 q 0,-0.99998 -1.02,-0.99998 l -61.499926,-0.10001 q -1.459998,-0.61999 -1.459998,-2.49997 -0.04,-30.2196 0,-61.41917 l 127.999844,-0.08 z"
     id="path118"
     style="stroke-width:1.99999" />
  <path
     fill="#7c3d21"
     d="m 64.041176,895.85482 q 0.719999,-0.29999 1.439998,0.14001 l 61.499926,0.10001 q 1.02,0 1.02,0.99998 V 957.614 a 2.4199972,2.4399671 0 0 0 2.42,2.43996 l 381.23955,-0.04 0.22,63.97914 H 127.9811 l -0.1,-63.01916 q 0,-0.97998 -0.98,-0.97998 H 65.381174 q -1.239998,0 -1.239998,-1.24 z"
     id="path119"
     style="stroke-width:1.99999" />
</svg>
