<?xml version="1.0" encoding="UTF-8" standalone="no"?>
<svg
   width="16"
   height="16"
   version="1.1"
   id="svg119"
   sodipodi:docname="logo.svg"
   inkscape:export-filename="icon.svg"
   inkscape:export-xdpi="191.99977"
   inkscape:export-ydpi="191.99977"
   inkscape:version="1.3.2 (091e20e, 2023-11-25, custom)"
   xmlns:inkscape="http://www.inkscape.org/namespaces/inkscape"
   xmlns:sodipodi="http://sodipodi.sourceforge.net/DTD/sodipodi-0.dtd"
   xmlns="http://www.w3.org/2000/svg"
   xmlns:svg="http://www.w3.org/2000/svg">
  <defs
     id="defs119" />
  <sodipodi:namedview
     id="namedview119"
     pagecolor="#505050"
     bordercolor="#ffffff"
     borderopacity="1"
     inkscape:showpageshadow="0"
     inkscape:pageopacity="0"
     inkscape:pagecheckerboard="1"
     inkscape:deskcolor="#505050"
     inkscape:zoom="21.411008"
     inkscape:cx="7.9631935"
     inkscape:cy="8.7104727"
     inkscape:window-width="1366"
     inkscape:window-height="705"
     inkscape:window-x="-8"
     inkscape:window-y="-8"
     inkscape:window-maximized="1"
     inkscape:current-layer="svg119" />
  <g
     stroke-width="2"
     fill="none"
     id="g84"
     transform="matrix(0.03123683,0,0,0.03123645,0.00125038,0.00687707)">
    <path
       stroke="#8f4a29"
       vector-effect="non-scaling-stroke"
       d="m 447.82,0 0.11,31.99"
       id="path1" />
    <path
       stroke="#ca915d"
       vector-effect="non-scaling-stroke"
       d="M 447.93,31.99 416.04,32"
       id="path2" />
    <path
       stroke="#cba07a"
       vector-effect="non-scaling-stroke"
       d="M 416.04,32 H 32"
       id="path3" />
    <path
       stroke="#672f16"
       vector-effect="non-scaling-stroke"
       d="M 448.25,351.98 416,351.9"
       id="path4" />
    <path
       stroke="#b89372"
       vector-effect="non-scaling-stroke"
       d="m 416,351.9 q -0.01,0.03 -0.01,0.07"
       id="path5" />
    <path
       stroke="#b88555"
       vector-effect="non-scaling-stroke"
       d="m 415.99,351.97 -0.02,-63.25 q 0,-0.72 0.72,-0.72 h 30.8 a 0.44,0.44 0 0 0 0.44,-0.43 l 0.04,-31.56"
       id="path6" />
    <path
       stroke="#a85c31"
       vector-effect="non-scaling-stroke"
       d="M 447.97,256.01 447.99,192"
       id="path7" />
    <path
       stroke="#b88555"
       vector-effect="non-scaling-stroke"
       d="m 447.99,192 31.5,-0.01 a 0.44,0.44 0 0 0 0.44,-0.43 l 0.05,-31.57"
       id="path8" />
    <path
       stroke="#a85122"
       vector-effect="non-scaling-stroke"
       d="m 479.98,159.99 0.01,-64"
       id="path9" />
    <path
       stroke="#b88555"
       vector-effect="non-scaling-stroke"
       d="m 479.99,95.99 -0.02,-63.6 a 0.41,0.41 0 0 0 -0.41,-0.41 l -31.63,0.01"
       id="path10" />
    <path
       stroke="#cba07a"
       vector-effect="non-scaling-stroke"
       d="m 32,32 0.01,64.08"
       id="path11" />
    <path
       stroke="#ca915d"
       vector-effect="non-scaling-stroke"
       d="M 32.01,96.08 31.99,127.9"
       id="path12" />
    <path
       stroke="#793b1e"
       vector-effect="non-scaling-stroke"
       d="M 31.99,127.9 0,127.92"
       id="path13" />
    <path
       stroke="#f4dba6"
       vector-effect="non-scaling-stroke"
       d="m 416.04,32 -0.03,32.01"
       id="path14" />
    <path
       stroke="#a38567"
       vector-effect="non-scaling-stroke"
       d="M 416.01,64.01 352,64.2"
       id="path15" />
    <path
       stroke="#f4dba6"
       vector-effect="non-scaling-stroke"
       d="M 352,64.2 Q 351.16,64.33 350.75,64 207.52,63.99 64.51,64 A 0.51,0.51 0 0 0 64,64.51 v 30.98 a 0.5,0.5 0 0 1 -0.5,0.5 l -31.49,0.09"
       id="path16" />
    <path
       stroke="#e39856"
       vector-effect="non-scaling-stroke"
       d="M 479.99,95.99 448.44,95.98 A 0.44,0.44 0 0 1 448,95.54 V 64.52 a 0.5,0.5 0 0 0 -0.5,-0.5 l -31.53,-0.01"
       id="path17" />
    <path
       stroke="#a2764a"
       vector-effect="non-scaling-stroke"
       d="m 415.97,64.01 h 0.04 M 352,64.2 l 0.01,63.58"
       id="path18" />
    <path
       stroke="#e4a966"
       vector-effect="non-scaling-stroke"
       d="M 352.01,127.78 160.36,128 a 0.36,0.35 90 0 0 -0.35,0.36 l 0.21,31.63"
       id="path19" />
    <path
       stroke="#a2764a"
       vector-effect="non-scaling-stroke"
       d="M 160.22,159.99 32.88,159.97 a 0.9,0.89 -90 0 1 -0.89,-0.9 V 127.9"
       id="path20" />
    <path
       stroke="#924217"
       vector-effect="non-scaling-stroke"
       d="M 415.97,64.01 415.96,96"
       id="path21" />
    <path
       stroke="#935326"
       vector-effect="non-scaling-stroke"
       d="m 415.96,96 -31.51,0.01 A 0.45,0.44 0 0 0 384,96.45 v 31.05 a 0.5,0.5 0 0 1 -0.5,0.5 h -30.7 q -0.25,0 -0.45,-0.15 -0.18,-0.14 -0.34,-0.07"
       id="path22" />
    <path
       stroke="#e39856"
       vector-effect="non-scaling-stroke"
       d="m 479.98,159.99 -31.95,-0.01"
       id="path23" />
    <path
       stroke="#924217"
       vector-effect="non-scaling-stroke"
       d="M 448.03,159.98 447.99,96.57 A 0.57,0.57 0 0 0 447.42,96 L 416,95.99"
       id="path24" />
    <path
       stroke="#d47533"
       vector-effect="non-scaling-stroke"
       d="M 416,95.99 Q 415.98,96 415.96,96"
       id="path25" />
    <path
       stroke="#935326"
       vector-effect="non-scaling-stroke"
       d="m 416,95.99 v 63.96"
       id="path26" />
    <path
       stroke="#d48041"
       vector-effect="non-scaling-stroke"
       d="m 416,159.95 q -0.03,0.02 -0.06,0.05"
       id="path27" />
    <path
       stroke="#935326"
       vector-effect="non-scaling-stroke"
       d="M 415.94,160 160.22,159.99"
       id="path28" />
    <path
       stroke="#a2764a"
       vector-effect="non-scaling-stroke"
       d="m 448.03,159.98 q -0.02,0.01 -0.04,0.03"
       id="path29" />
    <path
       stroke="#934d25"
       vector-effect="non-scaling-stroke"
       d="M 447.99,160.01 416,159.95 m -0.06,0.05 0.01,31.57 a 0.45,0.44 0 0 1 -0.45,0.44 H 288.14"
       id="path30" />
    <path
       stroke="#995c32"
       vector-effect="non-scaling-stroke"
       d="m 288.14,192.01 -96.41,0.3"
       id="path31" />
    <path
       stroke="#394b08"
       vector-effect="non-scaling-stroke"
       d="m 191.73,192.31 q -0.18,-0.04 -0.34,-0.16 Q 191.2,192 190.96,192 l -29.42,-0.01 q -0.43,0 -0.78,0.25 -0.3,0.2 -0.75,0.21"
       id="path32" />
    <path
       stroke="#995c32"
       vector-effect="non-scaling-stroke"
       d="m 160.01,192.45 q 0.03,-0.38 -0.26,-0.38 Q 112.1,192 64.46,192 q -0.24,0 -0.39,0.1 -0.18,0.11 -0.29,0.28"
       id="path33" />
    <path
       stroke="#672f16"
       vector-effect="non-scaling-stroke"
       d="m 63.78,192.38 q -0.17,0.01 -0.35,-0.15 -0.23,-0.21 -0.55,-0.22 L 32,191.94"
       id="path34" />
    <path
       stroke="#e4a365"
       vector-effect="non-scaling-stroke"
       d="M 447.99,160.01 V 192 m -0.02,64.01 -63.97,0.24"
       id="path35" />
    <path
       stroke="#7c5c46"
       vector-effect="non-scaling-stroke"
       d="M 384,256.25 320,256 m 0,0 -0.02,-31.47 q 0,-0.49 -0.49,-0.49 l -31.02,-0.03"
       id="path36" />
    <path
       stroke="#784e3d"
       vector-effect="non-scaling-stroke"
       d="m 288.47,224.01 q -0.41,-0.09 -0.68,-0.02"
       id="path37" />
    <path
       stroke="#da894d"
       vector-effect="non-scaling-stroke"
       d="m 287.79,223.99 0.35,-31.98"
       id="path38" />
    <path
       stroke="#ae6a3d"
       vector-effect="non-scaling-stroke"
       d="m 63.78,192.38 0.19,31.63"
       id="path39" />
    <path
       stroke="#4f5914"
       vector-effect="non-scaling-stroke"
       d="M 63.97,224.01 V 256"
       id="path40" />
    <path
       stroke="#8f4a29"
       vector-effect="non-scaling-stroke"
       d="M 63.97,256 32,255.91"
       id="path41" />
    <path
       stroke="#818630"
       vector-effect="non-scaling-stroke"
       d="M 160.01,192.45 160,223.53 a 0.46,0.45 0 0 1 -0.46,0.45 l -31.26,0.03 a 0.27,0.27 0 0 0 -0.27,0.27 l 0.2,31.69"
       id="path42" />
    <path
       stroke="#eab271"
       vector-effect="non-scaling-stroke"
       d="m 128.21,255.97 q -0.05,0.19 -0.22,0.24"
       id="path43" />
    <path
       stroke="#a59e45"
       vector-effect="non-scaling-stroke"
       d="m 127.99,256.21 q -0.08,-0.04 -0.14,-0.1 -0.14,-0.14 -0.27,-0.14 -15.77,0.09 -31.54,-0.03"
       id="path44" />
    <path
       stroke="#818630"
       vector-effect="non-scaling-stroke"
       d="m 96.04,255.94 -0.03,-31.51 a 0.41,0.41 0 0 0 -0.41,-0.41 l -31.63,-0.01 m 127.76,-31.7 0.21,0.16 q 0.05,0.04 0.05,0.11 0.03,15.38 -0.02,30.5 0,0.91 -0.92,0.91 l -30.51,0.02 q -0.53,0 -0.52,0.53 l 0.24,31"
       id="path45" />
    <path
       stroke="#8aa148"
       vector-effect="non-scaling-stroke"
       d="m 160.26,255.54 q 0.07,0.36 -0.3,0.37 -12.33,0.2 -31.75,0.06"
       id="path46" />
    <path
       stroke="#7e5c49"
       vector-effect="non-scaling-stroke"
       d="m 287.79,223.99 h -63.25 a 0.53,0.52 0 0 0 -0.53,0.52 v 31.45"
       id="path47" />
    <path
       stroke="#eab271"
       vector-effect="non-scaling-stroke"
       d="m 224.01,255.96 -62.6,0.04 a 1.06,1.06 0 0 1 -0.66,-0.23 q -0.25,-0.19 -0.49,-0.23"
       id="path48" />
    <path
       stroke="#468d1c"
       vector-effect="non-scaling-stroke"
       d="m 96.04,255.94 q -0.03,0.03 -0.06,0.05"
       id="path49" />
    <path
       stroke="#8aa148"
       vector-effect="non-scaling-stroke"
       d="M 95.98,255.99 63.97,256"
       id="path50" />
    <path
       stroke="#202f42"
       vector-effect="non-scaling-stroke"
       d="m 288.47,224.01 q -0.47,1.34 -0.47,1.74 -0.06,15.05 0.09,30.23"
       id="path51" />
    <path
       stroke="#887761"
       vector-effect="non-scaling-stroke"
       d="m 288.09,255.98 -64.08,-0.02"
       id="path52" />
    <path
       stroke="#8b856a"
       vector-effect="non-scaling-stroke"
       d="m 320,256 -31.91,-0.02 M 320,256 l 0.05,31.29 a 0.71,0.71 0 0 0 0.71,0.71 l 62.42,-0.01 a 0.79,0.79 0 0 0 0.79,-0.79 L 384,256.25"
       id="path53" />
    <path
       stroke="#f4dba6"
       vector-effect="non-scaling-stroke"
       d="M 415.99,351.97 288,352.01"
       id="path54" />
    <path
       stroke="#8b856a"
       vector-effect="non-scaling-stroke"
       d="m 288,352.01 -63.93,-0.02"
       id="path55" />
    <path
       stroke="#f4dba6"
       vector-effect="non-scaling-stroke"
       d="m 224.07,351.99 -31.84,-0.28"
       id="path56" />
    <path
       stroke="#afb85d"
       vector-effect="non-scaling-stroke"
       d="m 192.23,351.71 -0.24,-31.19 a 0.52,0.52 0 0 0 -0.52,-0.51 l -31.41,-0.02"
       id="path57" />
    <path
       stroke="#f4dba6"
       vector-effect="non-scaling-stroke"
       d="M 160.06,319.99 64,319.98"
       id="path58" />
    <path
       stroke="#ca915d"
       vector-effect="non-scaling-stroke"
       d="M 64,319.98 63.97,256"
       id="path59" />
    <path
       stroke="#afb85d"
       vector-effect="non-scaling-stroke"
       d="m 95.98,255.99 -0.01,31.18 q 0,0.83 0.84,0.83 l 30.47,-0.02 a 0.68,0.68 0 0 0 0.68,-0.68 l 0.03,-31.09"
       id="path60" />
    <path
       stroke="#cba07a"
       vector-effect="non-scaling-stroke"
       d="m 64,319.98 -32,0.06"
       id="path61" />
    <path
       stroke="#afc77a"
       vector-effect="non-scaling-stroke"
       d="m 160.06,319.99 -0.07,31.8"
       id="path62" />
    <path
       stroke="#b3d48d"
       vector-effect="non-scaling-stroke"
       d="m 159.99,351.79 -31.57,0.22 a 0.4,0.4 0 0 0 -0.4,0.4 L 128,384 m 0,0 -31.69,0.01 a 0.3,0.29 -90 0 0 -0.29,0.3 L 96.01,416"
       id="path63" />
    <path
       stroke="#f4dba6"
       vector-effect="non-scaling-stroke"
       d="m 96.01,416 -64,0.04"
       id="path64" />
    <path
       stroke="#cba07a"
       vector-effect="non-scaling-stroke"
       d="M 32.01,416.04 32,320.04"
       id="path65" />
    <path
       stroke="#b3d48d"
       vector-effect="non-scaling-stroke"
       d="M 96,352.54 A 0.54,0.54 0 0 0 95.46,352 H 64.54 A 0.54,0.54 0 0 0 64,352.54 v 30.92 A 0.54,0.54 0 0 0 64.54,384 H 95.46 A 0.54,0.54 0 0 0 96,383.46 v -30.92"
       id="path66" />
    <path
       stroke="#ca915d"
       vector-effect="non-scaling-stroke"
       d="m 32.01,416.04 q -0.02,15.6 0,30.71 0,0.94 0.73,1.25"
       id="path67" />
    <path
       stroke="#8f4a29"
       vector-effect="non-scaling-stroke"
       d="m 32.74,448 q -0.36,-0.22 -0.72,-0.07"
       id="path68" />
    <path
       stroke="#afc77a"
       vector-effect="non-scaling-stroke"
       d="m 192.23,351.71 -32.17,0.28"
       id="path69" />
    <path
       stroke="#6eb244"
       vector-effect="non-scaling-stroke"
       d="m 160.06,351.99 q 0.39,0.11 -0.07,-0.2"
       id="path70" />
    <path
       stroke="#a38567"
       vector-effect="non-scaling-stroke"
       d="m 416,351.9 v 95.63"
       id="path71" />
    <path
       stroke="#f4dba6"
       vector-effect="non-scaling-stroke"
       d="m 416,447.53 q -0.16,0.33 -0.3,0.44 -0.08,0.06 -0.18,0.06 Q 319.87,447.96 224.75,448 A 0.74,0.74 0 0 1 224,447.26 l -0.02,-30.55 A 0.71,0.71 0 0 0 223.27,416 l -95.29,-0.01"
       id="path72" />
    <path
       stroke="#b3d48d"
       vector-effect="non-scaling-stroke"
       d="M 127.98,415.99 128,384 m 0,0 31.25,-0.03 a 0.79,0.79 0 0 0 0.79,-0.79 l 0.02,-31.19"
       id="path73" />
    <path
       stroke="#8c9387"
       vector-effect="non-scaling-stroke"
       d="m 224.07,351.99 0.02,31.4 a 0.61,0.61 0 0 0 0.6,0.61 l 62.78,0.01 q 0.57,0 0.57,-0.58 L 288,352.01"
       id="path74" />
    <path
       stroke="#93aa9b"
       vector-effect="non-scaling-stroke"
       d="m 320.05,415.98 31.23,-0.03 a 0.7,0.69 -90 0 0 0.69,-0.7 l 0.04,-30.73 a 0.49,0.49 0 0 0 -0.49,-0.49 l -31.44,-0.02"
       id="path75" />
    <path
       stroke="#8c9387"
       vector-effect="non-scaling-stroke"
       d="m 320.08,384.01 -31.64,0.01 a 0.44,0.44 0 0 0 -0.44,0.44 v 30.82 a 0.7,0.69 0 0 0 0.7,0.69 l 31.35,0.01"
       id="path76" />
    <path
       stroke="#2b545f"
       vector-effect="non-scaling-stroke"
       d="m 320.08,384.01 -0.03,31.97"
       id="path77" />
    <path
       stroke="#672f16"
       vector-effect="non-scaling-stroke"
       d="m 255.94,512 -0.11,-31.99"
       id="path78" />
    <path
       stroke="#a2764a"
       vector-effect="non-scaling-stroke"
       d="m 255.83,480.01 223.46,0.01 a 0.69,0.68 0 0 0 0.69,-0.68 l 0.01,-31.3"
       id="path79" />
    <path
       stroke="#924217"
       vector-effect="non-scaling-stroke"
       d="m 479.99,448.04 -0.02,-63.76 A 0.28,0.28 0 0 0 479.69,384 h -31.15 q -0.51,0 -0.51,0.51 l 0.01,63.48"
       id="path80" />
    <path
       stroke="#a2764a"
       vector-effect="non-scaling-stroke"
       d="m 448.04,447.99 q -15.38,0.04 -31.29,-0.02 -0.4,0 -0.75,-0.44"
       id="path81" />
    <path
       stroke="#b2c670"
       vector-effect="non-scaling-stroke"
       d="M 127.98,415.99 96.01,416"
       id="path82" />
    <path
       stroke="#e39856"
       vector-effect="non-scaling-stroke"
       d="m 479.99,448.04 -31.95,-0.05"
       id="path83" />
    <path
       stroke="#b88555"
       vector-effect="non-scaling-stroke"
       d="M 255.83,480.01 65.21,480.03 A 1.22,1.21 -90 0 1 64,478.81 v -30.26 q 0,-0.5 -0.51,-0.5 L 32.74,448"
       id="path84" />
  </g>
  <path
     fill="#a15631"
     d="M 1.0358142,0.00687707 H 13.989727 l 0.0034,0.99925383 -0.996143,3.124e-4 H 1.0008289 V 0.06934996 q 0,-0.05497614 0.034985,-0.06247289 z"
     id="path85"
     style="stroke-width:0.0312367" />
  <path
     fill="#7c3d21"
     d="m 13.989727,0.00687707 h 1.000203 l 0.0063,0.98269856 q 0,0.015618 0.01562,0.015618 l 0.98271,0.00375 v 4.9931459 l -0.984272,0.00313 q -0.0153,0 -0.0153,0.015305 v 2.9590282 a 0.02342762,0.02342734 0 0 1 -0.02343,0.023427 h -0.959909 q -0.01593,0 -0.01562,0.015618 l 0.0072,1.9828893 -1.007388,-0.0025 q -3.13e-4,9.06e-4 -3.13e-4,0.0022 l -6.24e-4,-1.9757061 q 0,-0.02249 0.02249,-0.02249 h 0.962095 a 0.01374421,0.01374403 0 0 0 0.01374,-0.013432 l 0.0013,-0.9858223 6.24e-4,-1.9994447 0.98396,-3.124e-4 a 0.01374421,0.01374403 0 0 0 0.01374,-0.013432 l 0.0015,-0.9861347 3.12e-4,-1.9991323 -6.25e-4,-1.986638 a 0.0128071,0.01280695 0 0 0 -0.01281,-0.012807 l -0.988021,3.123e-4 z"
     id="path86"
     style="stroke-width:0.0312367" />
  <path
     fill="#a15631"
     d="m 1.0008289,1.0064433 3.123e-4,2.0016313 -6.246e-4,0.9939437 -0.99926622,6.248e-4 V 1.0136276 Z"
     id="path87"
     style="stroke-width:0.0312367" />
  <path
     fill="#f4e9c3"
     d="M 1.0008289,1.0064433 H 12.99702 l -9.06e-4,0.9998787 -1.99947,0.00593 q -0.02624,0.00406 -0.03905,-0.00625 -4.4740511,-3.124e-4 -8.9412298,0 a 0.01593078,0.01593059 0 0 0 -0.015931,0.01593 v 0.9677054 a 0.01561841,0.01561822 0 0 1 -0.015618,0.015618 l -0.9836478,0.00281 z"
     id="path88"
     style="stroke-width:0.0312367" />
  <path
     fill="#f3cc89"
     d="m 12.99702,1.0064433 0.996143,-3.124e-4 0.988021,-3.123e-4 a 0.0128071,0.01280695 0 0 1 0.01281,0.012807 l 6.25e-4,1.986638 -0.985522,-3.124e-4 a 0.01374421,0.01374403 0 0 1 -0.01374,-0.013743 V 2.0222526 a 0.01561841,0.01561822 0 0 0 -0.01562,-0.015618 L 12.99484,2.0063223 h 0.0013 z m -2.000406,1.0058135 3.12e-4,1.986013 -5.986538,0.00688 a 0.01093289,0.01124512 0 0 0 -0.010933,0.011245 l 0.00656,0.9880086 -3.9776976,-6.248e-4 a 0.02780077,0.0281128 0 0 1 -0.0278,-0.028117 v -0.97364 l 6.246e-4,-0.9939437 0.9836477,-0.00281 a 0.01561841,0.01561822 0 0 0 0.015618,-0.015618 V 2.0219428 a 0.01593078,0.01593059 0 0 1 0.015931,-0.015931 q 4.4671787,-3.123e-4 8.9412293,0 0.01281,0.010308 0.03905,0.00625 z"
     id="path89"
     style="stroke-width:0.0312367" />
  <path
     fill="#51200a"
     d="m 12.996083,2.006322 h -0.0013 l -3.13e-4,0.9992538 -0.984272,3.124e-4 a 0.01405658,0.01374403 0 0 0 -0.01405,0.013744 v 0.9698916 a 0.01561841,0.01561822 0 0 1 -0.01562,0.015618 h -0.958971 q -0.0078,0 -0.01406,-0.00468 -0.0056,-0.00438 -0.01062,-0.00218 l -2.96e-4,-1.986018 z"
     id="path90"
     style="stroke-width:0.0312367" />
  <path
     fill="#d36423"
     d="m 12.994834,2.006322 0.984897,3.124e-4 a 0.01561841,0.01561822 0 0 1 0.01562,0.015618 v 0.9689547 a 0.01374421,0.01374403 0 0 0 0.01374,0.013743 l 0.985522,3.123e-4 -3.12e-4,1.9991323 -0.998016,-3.123e-4 -0.0013,-1.9807029 a 0.01780499,0.01780477 0 0 0 -0.0178,-0.017805 l -0.981462,-3.124e-4 q -6.25e-4,3.124e-4 -0.0013,3.124e-4 z"
     id="path91"
     style="stroke-width:0.0312367" />
  <path
     fill="#d48642"
     d="m 12.994521,3.0055758 q 6.26e-4,0 0.0013,-3.124e-4 v 1.9978831 q -9.06e-4,6.247e-4 -0.0019,0.00156 L 5.006015,5.0043961 4.9994554,4.0163875 a 0.01093289,0.01124512 0 0 1 0.010933,-0.011245 l 5.9865376,-0.00688 q 0.005,-0.00218 0.01062,0.00218 0.0063,0.00468 0.01406,0.00468 h 0.95897 a 0.01561841,0.01561822 0 0 0 0.01562,-0.015618 V 3.0196326 a 0.01405658,0.01374403 0 0 1 0.01405,-0.013745 z"
     id="path92"
     style="stroke-width:0.0312367" />
  <path
     fill="#51200a"
     d="m 12.995771,3.0052634 0.981461,3.124e-4 a 0.01780499,0.01780477 0 0 1 0.0178,0.017805 l 0.0013,1.9807029 q -6.25e-4,3.124e-4 -0.0013,9.331e-4 l -0.999267,-0.00188 z M 1.0005166,4.0020183 v 0.97364 a 0.02780077,0.0281128 0 0 0 0.0278,0.028113 l 3.9776976,6.247e-4 7.9878818,3.124e-4 3.13e-4,0.9861345 a 0.01405658,0.01374403 0 0 1 -0.01406,0.013745 H 9.0018299 l -3.0115425,0.00937 q -0.00563,-0.00125 -0.010621,-0.005 -0.00593,-0.00468 -0.013432,-0.00468 l -0.9189869,-3.16e-4 q -0.013432,0 -0.024365,0.00781 -0.00937,0.00625 -0.023427,0.00656 9.331e-4,-0.01187 -0.00812,-0.01187 -1.4884348,-0.00218 -2.9765574,-0.00218 -0.00749,0 -0.012182,0.00313 -0.00563,0.00343 -0.00906,0.00874 -0.00531,3.122e-4 -0.010933,-0.00468 -0.00718,-0.00656 -0.01718,-0.00688 L 1.0008289,6.0024 1.0011412,5.0147036 a 0.00999578,0.00999566 0 0 0 -0.009996,-0.01 l -0.98989511,-0.0025 V 4.0026431 Z"
     id="path93"
     style="stroke-width:0.0312367" />
  <path
     fill="#d47a40"
     d="m 12.995771,5.0031465 0.999266,0.00188 V 6.0042803 L 13.994412,8.003725 11.996193,8.011215 9.9970354,8.003405 9.9964103,7.0203942 q 0,-0.015306 -0.015302,-0.015306 L 9.0121418,7.0041531 Q 8.999335,7.0013445 8.9909004,7.0035284 L 9.0018337,6.004587 h 3.9783223 a 0.01405658,0.01374403 0 0 0 0.01406,-0.013744 l -3.13e-4,-0.9861345 q 9.06e-4,-9.332e-4 0.0019,-0.00156 z"
     id="path94"
     style="stroke-width:0.0312367" />
  <path
     fill="#f3cc89"
     d="m 13.995037,5.0050205 q 6.25e-4,-6.247e-4 0.0013,-9.331e-4 l 0.998016,3.124e-4 -0.0015,0.9861347 a 0.01374421,0.01374403 0 0 1 -0.01374,0.013432 l -0.98396,3.124e-4 z"
     id="path95"
     style="stroke-width:0.0312367" />
  <path
     fill="#7c3d21"
     d="m 1.0008289,6.0024002 0.9645932,0.00218 q 0.01,3.124e-4 0.01718,0.00688 0.00563,0.005 0.010933,0.00468 l 0.00593,0.9880088 v 0.9992536 l -0.9986413,-0.00281 z"
     id="path96"
     style="stroke-width:0.0312367" />
  <path
     fill="#e09759"
     d="m 4.9994552,6.0183306 -3.124e-4,0.9708289 a 0.01436894,0.0140564 0 0 1 -0.014369,0.014056 l -0.9764633,9.331e-4 a 0.00843395,0.00843384 0 0 0 -0.00843,0.00843 l 0.00625,0.9898831 q -0.00156,0.00593 -0.00688,0.00749 -0.0025,-0.00125 -0.00438,-0.00313 -0.00438,-0.00438 -0.00843,-0.00438 -0.4926047,0.00281 -0.9852096,-9.331e-4 L 3.000298,7.0172723 A 0.0128071,0.01280695 0 0 0 2.9874912,7.0044653 L 1.9994702,7.004153 1.9935352,6.0161443 q 0.00343,-0.00531 0.00906,-0.00874 0.00468,-0.00313 0.012183,-0.00313 1.4881225,0 2.9765574,0.00218 0.00906,0 0.00812,0.01187 z"
     id="path97"
     style="stroke-width:0.0312367" />
  <path
     fill="#217506"
     d="m 5.9902874,6.0139576 0.00656,0.005 q 0.00156,0.00125 0.00156,0.00343 9.331e-4,0.4804164 -6.247e-4,0.9527115 0,0.028425 -0.028738,0.028425 L 5.016009,7.0041487 q -0.016556,0 -0.016243,0.016556 l 0.00749,0.9683297 q 0.00218,0.011245 -0.00937,0.011557 -0.3851502,0.00625 -0.9917693,0.00188 l -0.00625,-0.9898831 a 0.00843395,0.00843384 0 0 1 0.00843,-0.00843 L 4.98476,7.0032251 a 0.01436894,0.0140564 0 0 0 0.014369,-0.014056 l 3.124e-4,-0.9708289 q 0.014057,-3.123e-4 0.023427,-0.00656 0.010933,-0.00781 0.024365,-0.00781 l 0.9189875,3.124e-4 q 0.00749,0 0.013432,0.00468 0.005,0.00375 0.010621,0.005 z"
     id="path98"
     style="stroke-width:0.0312367" />
  <path
     fill="#e09759"
     d="M 9.0018299,6.0045869 8.9908972,7.0035283 H 7.0151677 a 0.01655552,0.01624295 0 0 0 -0.016556,0.016243 v 0.9823861 l -1.9554254,0.00125 a 0.03311104,0.03311063 0 0 1 -0.020616,-0.00718 q -0.00781,-0.00593 -0.015306,-0.00718 l -0.00749,-0.9683297 q -3.124e-4,-0.016556 0.016243,-0.016556 L 5.969053,7.0035369 q 0.028738,0 0.028738,-0.028425 0.00156,-0.4722951 6.247e-4,-0.9527116 0,-0.00218 -0.00156,-0.00343 l -0.00656,-0.005 z"
     id="path99"
     style="stroke-width:0.0312367" />
  <path
     fill="#217506"
     d="m 1.9994702,7.0041531 0.988021,3.124e-4 a 0.0128071,0.01280695 0 0 1 0.012807,0.012807 l 9.332e-4,0.9842603 q -9.332e-4,9.332e-4 -0.00188,0.00156 l -0.999891,3.122e-4 z"
     id="path100"
     style="stroke-width:0.0312367" />
  <path
     fill="#1c2139"
     d="m 8.9908972,7.0035283 q 0.00843,-0.00218 0.021241,6.247e-4 -0.014681,0.041857 -0.014681,0.054352 -0.00188,0.4701083 0.00281,0.9442778 L 6.9986121,8.0021574 V 7.0197713 a 0.01655552,0.01624295 0 0 1 0.016556,-0.016243 z"
     id="path101"
     style="stroke-width:0.0312367" />
  <path
     fill="#233d4b"
     d="m 9.0121381,7.0041531 0.9689667,9.332e-4 q 0.015302,0 0.015302,0.015305 L 9.9970319,8.003402 9.0002683,8.0027817 q -0.00468,-0.4741695 -0.00281,-0.9442778 0,-0.012495 0.014681,-0.054352 z"
     id="path102"
     style="stroke-width:0.0312367" />
  <path
     fill="#f3cc89"
     d="m 5.0072643,7.989038 q 0.0075,0.00125 0.015306,0.00718 a 0.03311104,0.03311063 0 0 0 0.020616,0.00718 l 1.9554253,-0.00125 2.0016559,6.247e-4 0.9967673,6.248e-4 0.00154,0.9773885 a 0.02217814,0.02217787 0 0 0 0.022179,0.022178 l 1.949802,-3.123e-4 a 0.02467709,0.0246768 0 0 0 0.02468,-0.024677 l 9.06e-4,-0.966768 1.99822,-0.00749 -0.0013,0.9858223 a 0.01374421,0.01374403 0 0 1 -0.01374,0.013432 h -0.962095 q -0.02249,0 -0.02249,0.02249 l 6.24e-4,1.975705 -3.9980015,0.0013 -1.9969704,-6.25e-4 -0.9945805,-0.0088 -0.0075,-0.974265 a 0.01624315,0.01624295 0 0 0 -0.016173,-0.01591 L 5.001017,10.002227 2.0004074,10.001914 1.9994702,8.0034064 2.9993612,8.0030941 2.9990489,8.9770464 q 0,0.025926 0.026239,0.025926 l 0.9517862,-6.248e-4 a 0.02124105,0.02124078 0 0 0 0.021241,-0.02124 l 9.332e-4,-0.971141 q 0.00531,-0.00156 0.00688,-0.00749 0.6066191,0.00438 0.9917693,-0.00188 0.011558,-3.123e-4 0.00937,-0.011558 z"
     id="path103"
     style="stroke-width:0.0312367" />
  <path
     fill="#a15631"
     d="m 1.0008289,8.0005956 0.9986413,0.00281 9.332e-4,1.9985084 -0.9995785,0.0019 z"
     id="path104"
     style="stroke-width:0.0312367" />
  <path
     fill="#6aa431"
     d="m 3.0012352,8.0015326 q 0.492605,0.00375 0.9852096,9.332e-4 0.00406,0 0.00843,0.00438 0.00188,0.00188 0.00438,0.00313 l -9.331e-4,0.971141 a 0.02124105,0.02124078 0 0 1 -0.021241,0.02124 l -0.9517862,6.248e-4 q -0.026239,0 -0.026239,-0.025926 l 3.053e-4,-0.973953 q 9.332e-4,-6.247e-4 0.00188,-0.00156 z"
     id="path105"
     style="stroke-width:0.0312367" />
  <path
     fill="#233d4b"
     d="m 9.9970354,8.0034067 1.9991576,0.00781 -9.06e-4,0.966768 a 0.02467709,0.0246768 0 0 1 -0.02468,0.024677 l -1.949803,3.124e-4 A 0.02217814,0.02217787 0 0 1 9.998626,8.9807961 Z"
     id="path106"
     style="stroke-width:0.0312367" />
  <path
     fill="#f4e9c3"
     d="m 2.0004074,10.001915 3.0006096,3.12e-4 -0.00218,0.993318 -0.9861468,0.0069 a 0.01249473,0.01249458 0 0 0 -0.012495,0.01249 l -6.247e-4,0.98676 -0.9898951,3.11e-4 a 0.00905868,0.00937094 0 0 0 -0.00906,0.0094 l -3.123e-4,0.989883 -1.999157,0.0013 -3.122e-4,-2.998699 z m 0.9995784,1.017058 a 0.01686789,0.01686768 0 0 0 -0.016868,-0.01687 H 2.0172752 a 0.01686789,0.01686768 0 0 0 -0.016868,0.01687 v 0.965831 a 0.01686789,0.01686768 0 0 0 0.016868,0.01687 H 2.983118 a 0.01686789,0.01686768 0 0 0 0.016868,-0.01687 z"
     id="path107"
     style="stroke-width:0.0312367" />
  <path
     fill="#a15631"
     d="m 1.0008289,10.003788 3.123e-4,2.9987 q -6.246e-4,0.487288 0,0.95927 0,0.02936 0.022803,0.03905 -0.011246,-0.0069 -0.022491,-0.0022 l -1.00020324,-0.0043 v -3.98171 z"
     id="path108"
     style="stroke-width:0.0312367" />
  <path
     fill="#6aa431"
     d="m 5.001017,10.002227 0.9811488,6.25e-4 a 0.01624315,0.01624295 0 0 1 0.016243,0.01593 l 0.0075,0.974264 -1.0048889,0.0088 q 0.012183,0.0034 -0.00218,-0.0063 z"
     id="path109"
     style="stroke-width:0.0312367" />
  <path
     fill="#f4e9c3"
     d="m 12.995458,11.001169 q 0,-0.0013 3.13e-4,-0.0022 v 2.987141 q -0.005,0.01031 -0.0094,0.01374 -0.0025,0.0019 -0.0056,0.0019 -2.9878021,-0.0022 -5.9590494,-9.06e-4 a 0.02311525,0.02311497 0 0 1 -0.023427,-0.02311 l -6.248e-4,-0.954273 a 0.02217814,0.02217787 0 0 0 -0.022178,-0.02218 L 3.9989489,13.001 3.9995737,12.001746 4.9757246,12.00084 a 0.02467709,0.0246768 0 0 0 0.024677,-0.02468 l 6.247e-4,-0.974265 1.0048889,-0.0088 0.9945805,0.0088 6.247e-4,0.980825 a 0.01905447,0.01905423 0 0 0 0.018742,0.01905 l 1.9610481,3.12e-4 q 0.017805,0 0.017805,-0.01812 l -0.00125,-0.981449 z m -2.9968607,1.999444 0.9755267,-9.06e-4 a 0.02155341,0.02186551 0 0 0 0.02155,-0.02186 l 0.0013,-0.959897 a 0.01530604,0.01530586 0 0 0 -0.0153,-0.0153 l -0.9820863,-6.25e-4 -0.9883329,3.12e-4 a 0.01374421,0.01374403 0 0 0 -0.013744,0.01374 v 0.962707 a 0.02186578,0.02155314 0 0 0 0.021866,0.02155 z"
     id="path110"
     style="stroke-width:0.0312367" />
  <path
     fill="#71bf56"
     d="m 4.9988306,10.995545 q 0.014369,0.0097 0.00218,0.0063 l -6.248e-4,0.974264 a 0.02467709,0.0246768 0 0 1 -0.024677,0.02468 l -0.976151,9.06e-4 6.248e-4,-0.98676 a 0.01249473,0.01249458 0 0 1 0.012495,-0.01249 z"
     id="path111"
     style="stroke-width:0.0312367" />
  <path
     fill="#51200a"
     d="m 12.995771,10.998982 1.007387,0.0025 1.991347,0.0022 v 3.995141 l -0.983021,0.0025 q -0.01562,0 -0.01562,0.01562 L 14.991516,16 H 7.9960041 l -0.00343,-0.999254 6.9801829,3.13e-4 a 0.02155341,0.02124078 0 0 0 0.02155,-0.02124 l 3.12e-4,-0.977701 -6.25e-4,-1.991636 a 0.00874632,0.00874621 0 0 0 -0.0088,-0.0088 h -0.973027 q -0.01593,0 -0.01593,0.01593 l 3.13e-4,1.98289 q -0.480423,0.0013 -0.977401,-6.25e-4 -0.01249,0 -0.02343,-0.01374 z"
     id="path112"
     style="stroke-width:0.0312367" />
  <rect
     fill="#71bf56"
     x="2.0004075"
     y="11.002105"
     width="0.99957848"
     height="0.99956626"
     rx="0.016867887"
     id="rect112"
     style="stroke-width:0.0312367" />
  <path
     fill="#233d4b"
     d="m 7.0004863,11.001793 1.9969704,6.25e-4 0.00125,0.981449 q 0,0.01812 -0.017805,0.01812 l -1.9610482,-3.11e-4 a 0.01905447,0.01905423 0 0 1 -0.018742,-0.01905 z"
     id="path113"
     style="stroke-width:0.0312367" />
  <path
     fill="#71bf56"
     d="m 3.9995644,12.001672 -6.248e-4,0.999254 -0.9986414,3.12e-4 3.123e-4,-0.989883 a 0.00905868,0.00937094 0 0 1 0.00906,-0.0094 z"
     id="path114"
     style="stroke-width:0.0312367" />
  <path
     fill="#233d4b"
     d="m 9.999534,12.001984 -9.059e-4,0.998629 -0.9792747,-3.12e-4 a 0.02186578,0.02155314 0 0 1 -0.021866,-0.02155 v -0.962707 a 0.01374421,0.01374403 0 0 1 0.013744,-0.01374 z"
     id="path115"
     style="stroke-width:0.0312367" />
  <path
     fill="#326a72"
     d="m 9.999534,12.001984 0.982087,6.25e-4 a 0.01530604,0.01530586 0 0 1 0.0153,0.0153 l -0.0013,0.959896 a 0.02155341,0.02186551 0 0 1 -0.02155,0.02186 l -0.9755255,9.06e-4 z"
     id="path116"
     style="stroke-width:0.0312367" />
  <path
     fill="#d36423"
     d="m 14.994615,14.002054 -0.998016,-0.0015 -3.12e-4,-1.982889 q 0,-0.01593 0.01593,-0.01593 h 0.973027 a 0.00874632,0.00874621 0 0 1 0.0088,0.0088 z"
     id="path117"
     style="stroke-width:0.0312367" />
  <path
     fill="#f3cc89"
     d="m 3.9989396,13.000926 2.9765574,3.12e-4 a 0.02217814,0.02217787 0 0 1 0.022178,0.02218 l 6.248e-4,0.954274 a 0.02311525,0.02311497 0 0 0 0.023427,0.02312 q 2.9712475,-0.0013 5.9590492,9.06e-4 0.0031,0 0.0056,-0.0019 0.0043,-0.0034 0.0094,-0.01374 0.01094,0.01374 0.02343,0.01374 0.496979,0.0019 0.977401,6.25e-4 l 0.998016,0.0015 -3.12e-4,0.977701 a 0.02155341,0.02124078 0 0 1 -0.02155,0.02124 l -6.9801733,-2.33e-4 -5.9543641,6.25e-4 a 0.03779656,0.03810846 0 0 1 -0.037797,-0.0381 v -0.945215 q 0,-0.01562 -0.01593,-0.01562 l -0.9605325,-0.0015 q -0.022803,-0.0097 -0.022803,-0.03905 -6.248e-4,-0.471983 0,-0.959272 l 1.9991568,-0.0013 z"
     id="path118"
     style="stroke-width:0.0312367" />
  <path
     fill="#7c3d21"
     d="m 1.0014536,13.998618 q 0.011245,-0.0047 0.022491,0.0022 l 0.9605323,0.0015 q 0.015931,0 0.015931,0.01562 v 0.945215 a 0.03779656,0.03810846 0 0 0 0.037797,0.0381 l 5.954364,-6.25e-4 0.00343,0.999253 H 2.000095 l -0.00156,-0.98426 q 0,-0.01531 -0.015306,-0.01531 H 1.0223823 q -0.019367,0 -0.019367,-0.01937 z"
     id="path119"
     style="stroke-width:0.0312367" />
</svg>
